# xmcd
#
# Track frame offsets:
#	150
#	12747
#	29670
#	47542
#	60952
#	76565
#	91922
#	107817
#	125655
#	142265
#	159112
#	175247
#	193300
#	206367
#
# Disc length: 2954 seconds
#
# Revision: 2
# Processed by: cddbd v1.5.2PL0 Copyright (c) Steve Scherf et al.
# Submitted via: audiograbber 1.83.01
#
DISCID=b90b880e
DTITLE=Various Artist -  Hot Hits Country Volume 16
DYEAR=1900
DGENRE=
TTITLE0=Trisha Yearwood - Wrong Side Of Memphis
TTITLE1=Billy Ray Cyrus - Could've Been Me
TTITLE2=Vince Gill - I Still Believe In You 
TTITLE3=Doug Stone - Warning Labels
TTITLE4=Bellamy Brothers - Cowboy Beat
TTITLE5=George Straight - So Much Like My Dad
TTITLE6=Mary-Chapin Carpenter- I Feel Lucky
TTITLE7=Rodney Crowell - What Kind Of Love
TTITLE8=Diamond Rio - Nowhere Bound
TTITLE9=Little Texas - You And Forever And Me
TTITLE10=Michelle Wright - One Time Around
TTITLE11=McBride and The Ride - Going Out Of My Mind
TTITLE12=Alan Jackson - Love's Got A Hold On You
TTITLE13=Confederate Railroad - Jesus And Mama
EXTD=
EXTT0=Yearwood - Trisha
EXTT1=Cyrus - Billy Ray
EXTT2=Gill - Vince
EXTT3=Stone - Doug
EXTT4=Bellamy Brothers
EXTT5=Strait - George
EXTT6=Carpenter - Mary-Chapin
EXTT7=Crowell - Rodney
EXTT8=Diamond Rio
EXTT9=Little Texas
EXTT10=Wright - Michelle
EXTT11=McBride and The Ride
EXTT12=Jackson - Alan
EXTT13=Confederate Railroad
PLAYORDER=
